<?xml version="1.0" encoding="UTF-8"?>
<!DOCTYPE svg PUBLIC "-//W3C//DTD SVG 1.1//EN" "http://www.w3.org/Graphics/SVG/1.1/DTD/svg11.dtd">
<svg xmlns="http://www.w3.org/2000/svg" version="1.1" width="225px" height="225px" style="shape-rendering:geometricPrecision; text-rendering:geometricPrecision; image-rendering:optimizeQuality; fill-rule:evenodd; clip-rule:evenodd" xmlns:xlink="http://www.w3.org/1999/xlink">
<g><path style="opacity:1" fill="#fdfdfd" d="M -0.5,-0.5 C 74.5,-0.5 149.5,-0.5 224.5,-0.5C 224.5,74.5 224.5,149.5 224.5,224.5C 149.5,224.5 74.5,224.5 -0.5,224.5C -0.5,149.5 -0.5,74.5 -0.5,-0.5 Z"/></g>
<g><path style="opacity:1" fill="#9e5757" d="M 63.5,78.5 C 58.1151,68.7262 49.9484,64.3928 39,65.5C 38.8306,70.1609 38.9973,74.8276 39.5,79.5C 37.8008,79.3398 36.1341,79.5065 34.5,80C 33.9781,80.5613 33.6448,81.228 33.5,82C 36.7131,86.2231 39.5465,90.7231 42,95.5C 43.1989,98.7256 43.6989,102.059 43.5,105.5C 43.4431,106.609 43.1098,107.609 42.5,108.5C 41.1667,109.833 39.8333,109.833 38.5,108.5C 32.1088,100.741 25.9421,92.7405 20,84.5C 16.3468,68.9191 13.0135,53.2524 10,37.5C 9.24828,34.1064 9.41495,30.773 10.5,27.5C 11,27.1667 11.5,26.8333 12,26.5C 16.3427,27.9211 20.5094,29.7544 24.5,32C 42.5,43.3333 57.1667,58 68.5,76C 67.0899,77.3717 65.4233,78.205 63.5,78.5 Z"/></g>
<g><path style="opacity:1" fill="#656565" d="M 115.5,63.5 C 117.274,78.7826 117.774,94.1159 117,109.5C 116.265,119.108 114.265,128.441 111,137.5C 110.535,138.931 109.701,140.097 108.5,141C 100.478,144.612 92.4779,148.112 84.5,151.5C 82.7116,150.378 80.7116,150.211 78.5,151C 61.9063,157.249 52.4063,169.082 50,186.5C 42.3059,175.754 37.9726,163.754 37,150.5C 36.5001,136.837 36.3334,123.171 36.5,109.5C 36.5,109.167 36.5,108.833 36.5,108.5C 37.1667,108.5 37.8333,108.5 38.5,108.5C 39.8333,109.833 41.1667,109.833 42.5,108.5C 45.0562,107.457 47.2228,105.79 49,103.5C 53.3333,97.1667 57.6667,90.8333 62,84.5C 65.242,81.7945 68.742,79.4612 72.5,77.5C 61.8263,59.3238 47.8263,44.1572 30.5,32C 24.77,28.2184 18.6033,25.385 12,23.5C 10.2894,23.4393 8.95603,24.1059 8,25.5C 7.88793,21.6107 9.88793,19.6107 14,19.5C 16.9922,20.245 19.8256,21.4117 22.5,23C 29.8333,29 37.1667,35 44.5,41C 52.0841,44.5279 59.7508,47.8612 67.5,51C 73.1683,56.1879 78.0017,62.0213 82,68.5C 82.6739,67.4216 83.6739,66.7549 85,66.5C 95.0457,64.2422 105.212,63.2422 115.5,63.5 Z"/></g>
<g><path style="opacity:1" fill="#1e1e1e" d="M 36.5,109.5 C 36.3334,123.171 36.5001,136.837 37,150.5C 37.9726,163.754 42.3059,175.754 50,186.5C 52.4063,169.082 61.9063,157.249 78.5,151C 80.7116,150.211 82.7116,150.378 84.5,151.5C 71.4279,156.077 61.5945,164.41 55,176.5C 51.9617,189.933 57.1284,198.1 70.5,201C 92.3577,204.605 110.358,197.938 124.5,181C 126.025,179.991 127.692,179.491 129.5,179.5C 129.665,176.15 129.498,172.817 129,169.5C 128.329,168.748 127.496,168.414 126.5,168.5C 134.429,168.19 140.095,164.357 143.5,157C 136.893,151.6 129.56,150.267 121.5,153C 116.677,155.321 116.177,158.488 120,162.5C 121.73,164.402 123.563,166.069 125.5,167.5C 117.958,166.402 114.125,162.069 114,154.5C 125.49,146.33 136.657,146.83 147.5,156C 145.395,163.273 140.728,168.106 133.5,170.5C 132.197,173.043 131.197,175.71 130.5,178.5C 145.884,197.794 165.551,204.628 189.5,199C 198.28,193.328 201.113,185.495 198,175.5C 195.949,170.786 193.115,166.619 189.5,163C 181.605,157.56 173.605,152.393 165.5,147.5C 171.625,148.319 177.291,150.319 182.5,153.5C 185.25,156.055 188.25,158.388 191.5,160.5C 201.595,138.369 200.762,116.702 189,95.5C 188.292,94.6195 187.458,93.9528 186.5,93.5C 182.352,87.1869 177.019,82.0203 170.5,78C 162.367,73.0975 153.7,69.5975 144.5,67.5C 135.267,64.0583 125.601,62.725 115.5,63.5C 105.212,63.2422 95.0457,64.2422 85,66.5C 83.6739,66.7549 82.6739,67.4216 82,68.5C 78.0017,62.0213 73.1683,56.1879 67.5,51C 59.7508,47.8612 52.0841,44.5279 44.5,41C 37.1667,35 29.8333,29 22.5,23C 19.8256,21.4117 16.9922,20.245 14,19.5C 9.88793,19.6107 7.88793,21.6107 8,25.5C 8.95603,24.1059 10.2894,23.4393 12,23.5C 18.6033,25.385 24.77,28.2184 30.5,32C 47.8263,44.1572 61.8263,59.3238 72.5,77.5C 68.742,79.4612 65.242,81.7945 62,84.5C 57.6667,90.8333 53.3333,97.1667 49,103.5C 47.2228,105.79 45.0562,107.457 42.5,108.5C 43.1098,107.609 43.4431,106.609 43.5,105.5C 49.4233,96.0036 56.0899,87.0036 63.5,78.5C 65.4233,78.205 67.0899,77.3717 68.5,76C 57.1667,58 42.5,43.3333 24.5,32C 20.5094,29.7544 16.3427,27.9211 12,26.5C 11.5,26.8333 11,27.1667 10.5,27.5C 9.41495,30.773 9.24828,34.1064 10,37.5C 13.0135,53.2524 16.3468,68.9191 20,84.5C 25.9421,92.7405 32.1088,100.741 38.5,108.5C 37.8333,108.5 37.1667,108.5 36.5,108.5C 19.6782,97.2118 10.8448,81.2118 10,60.5C 7.94486,54.0578 5.61153,47.7245 3,41.5C -0.499946,31.366 1.66672,22.866 9.5,16C 14.039,15.2676 18.3724,15.9342 22.5,18C 31.681,24.7584 40.681,31.7584 49.5,39C 56.6983,41.6188 63.6983,44.6188 70.5,48C 76.4314,52.7176 80.7647,58.551 83.5,65.5C 93.4632,60.3122 104.13,57.9789 115.5,58.5C 130.402,58.8189 144.735,61.8189 158.5,67.5C 162.589,59.2438 168.589,52.7438 176.5,48C 182.985,45.2567 189.319,42.2567 195.5,39C 200.532,33.6335 205.865,28.6335 211.5,24C 219.339,20.8331 223.005,23.4998 222.5,32C 220.681,52.7632 216.181,72.9299 209,92.5C 206.785,98.1925 203.618,103.192 199.5,107.5C 203.598,122.208 203.432,136.874 199,151.5C 197.46,155.419 195.293,158.919 192.5,162C 204.388,173.621 205.388,185.955 195.5,199C 186.522,204.164 176.855,205.831 166.5,204C 161.715,203.294 157.215,201.794 153,199.5C 140.884,209.921 127.384,212.088 112.5,206C 109.659,204.414 106.993,202.58 104.5,200.5C 89.3353,207.114 74.3353,206.947 59.5,200C 54.8515,194.596 49.6849,189.763 44,185.5C 39.3026,177.747 35.9693,169.414 34,160.5C 32.5107,146.197 32.1774,131.864 33,117.5C 33.7048,114.524 34.8714,111.858 36.5,109.5 Z"/></g>
<g><path style="opacity:1" fill="#616161" d="M 198.5,41.5 C 199.525,41.8966 199.692,42.5632 199,43.5C 190.658,54.1856 183.324,65.5189 177,77.5C 171.75,73.7898 166.25,70.4565 160.5,67.5C 165.351,62.8149 170.351,58.3149 175.5,54C 183.282,49.9173 190.949,45.7506 198.5,41.5 Z"/></g>
<g><path style="opacity:1" fill="#9c5656" d="M 201.5,99.5 C 200.156,94.0587 200.49,88.5587 202.5,83C 200.539,81.0215 199.206,78.6881 198.5,76C 198.775,73.0688 199.441,70.2355 200.5,67.5C 199.307,65.6163 197.641,65.1163 195.5,66C 190.49,70.5357 185.824,75.3691 181.5,80.5C 180.373,79.8783 179.373,79.045 178.5,78C 185.391,68.7744 191.891,59.2744 198,49.5C 202.122,43.7095 206.622,38.2095 211.5,33C 213.527,31.1207 215.86,29.954 218.5,29.5C 216.596,53.7814 210.929,77.1147 201.5,99.5 Z"/></g>
<g><path style="opacity:1" fill="#fcf9ed" d="M 115.5,63.5 C 125.601,62.725 135.267,64.0583 144.5,67.5C 140.356,90.8604 140.522,114.194 145,137.5C 145.318,139.061 146.151,140.228 147.5,141C 153.629,142.902 159.629,145.069 165.5,147.5C 173.605,152.393 181.605,157.56 189.5,163C 193.115,166.619 195.949,170.786 198,175.5C 201.113,185.495 198.28,193.328 189.5,199C 165.551,204.628 145.884,197.794 130.5,178.5C 131.197,175.71 132.197,173.043 133.5,170.5C 140.728,168.106 145.395,163.273 147.5,156C 136.657,146.83 125.49,146.33 114,154.5C 114.125,162.069 117.958,166.402 125.5,167.5C 125.5,168.167 125.833,168.5 126.5,168.5C 127.496,168.414 128.329,168.748 129,169.5C 129.498,172.817 129.665,176.15 129.5,179.5C 127.692,179.491 126.025,179.991 124.5,181C 110.358,197.938 92.3577,204.605 70.5,201C 57.1284,198.1 51.9617,189.933 55,176.5C 61.5945,164.41 71.4279,156.077 84.5,151.5C 92.4779,148.112 100.478,144.612 108.5,141C 109.701,140.097 110.535,138.931 111,137.5C 114.265,128.441 116.265,119.108 117,109.5C 117.774,94.1159 117.274,78.7826 115.5,63.5 Z"/></g>
<g><path style="opacity:1" fill="#683a3a" d="M 63.5,78.5 C 56.0899,87.0036 49.4233,96.0036 43.5,105.5C 43.6989,102.059 43.1989,98.7256 42,95.5C 39.5465,90.7231 36.7131,86.2231 33.5,82C 33.6448,81.228 33.9781,80.5613 34.5,80C 36.1341,79.5065 37.8008,79.3398 39.5,79.5C 38.9973,74.8276 38.8306,70.1609 39,65.5C 49.9484,64.3928 58.1151,68.7262 63.5,78.5 Z"/></g>
<g><path style="opacity:1" fill="#673a3a" d="M 201.5,99.5 C 200.68,101.14 199.847,102.807 199,104.5C 194.495,95.5005 188.662,87.5005 181.5,80.5C 185.824,75.3691 190.49,70.5357 195.5,66C 197.641,65.1163 199.307,65.6163 200.5,67.5C 199.441,70.2355 198.775,73.0688 198.5,76C 199.206,78.6881 200.539,81.0215 202.5,83C 200.49,88.5587 200.156,94.0587 201.5,99.5 Z"/></g>
<g><path style="opacity:1" fill="#656565" d="M 144.5,67.5 C 153.7,69.5975 162.367,73.0975 170.5,78C 177.019,82.0203 182.352,87.1869 186.5,93.5C 187.547,101.49 189.547,109.157 192.5,116.5C 190.913,122.639 190.08,128.972 190,135.5C 185.008,138.956 183.841,143.289 186.5,148.5C 185.867,150.786 184.534,152.452 182.5,153.5C 177.291,150.319 171.625,148.319 165.5,147.5C 159.629,145.069 153.629,142.902 147.5,141C 146.151,140.228 145.318,139.061 145,137.5C 140.522,114.194 140.356,90.8604 144.5,67.5 Z"/></g>
<g><path style="opacity:1" fill="#555555" d="M 186.5,93.5 C 187.458,93.9528 188.292,94.6195 189,95.5C 200.762,116.702 201.595,138.369 191.5,160.5C 188.25,158.388 185.25,156.055 182.5,153.5C 184.534,152.452 185.867,150.786 186.5,148.5C 183.841,143.289 185.008,138.956 190,135.5C 190.08,128.972 190.913,122.639 192.5,116.5C 189.547,109.157 187.547,101.49 186.5,93.5 Z"/></g>
<g><path style="opacity:1" fill="#030303" d="M 82.5,119.5 C 93.3742,119.536 97.8742,124.87 96,135.5C 91.2248,143.12 85.0581,144.453 77.5,139.5C 72.2511,130.961 73.9178,124.295 82.5,119.5 Z"/></g>
<g><path style="opacity:1" fill="#080808" d="M 163.5,121.5 C 172.998,120.173 177.498,124.173 177,133.5C 174.611,139.777 170.111,141.943 163.5,140C 158.574,137.647 156.74,133.814 158,128.5C 158.967,125.379 160.8,123.046 163.5,121.5 Z"/></g>
<g><path style="opacity:1" fill="#cbcbcb" d="M 81.5,123.5 C 87.0159,123.473 88.3492,125.64 85.5,130C 81.0022,131.477 78.8355,129.977 79,125.5C 79.9947,124.934 80.828,124.267 81.5,123.5 Z"/></g>
<g><path style="opacity:1" fill="#cacaca" d="M 163.5,124.5 C 168.22,124.206 169.886,126.206 168.5,130.5C 162.29,131.967 160.623,129.967 163.5,124.5 Z"/></g>
<g><path style="opacity:1" fill="#cbcbcb" d="M 77.5,131.5 C 80.5476,131.494 81.0476,132.494 79,134.5C 77.9614,133.756 77.4614,132.756 77.5,131.5 Z"/></g>
<g><path style="opacity:1" fill="#cdcdcd" d="M 82.5,132.5 C 84.337,132.639 84.6704,133.306 83.5,134.5C 82.7025,134.043 82.3691,133.376 82.5,132.5 Z"/></g>
<g><path style="opacity:1" fill="#191919" d="M 124.5,132.5 C 128.56,132.485 132.56,132.985 136.5,134C 138.861,134.197 140.528,135.364 141.5,137.5C 140.833,137.833 140.167,138.167 139.5,138.5C 131.992,134.535 124.492,134.535 117,138.5C 115.274,137.352 115.441,136.185 117.5,135C 119.927,134.098 122.26,133.264 124.5,132.5 Z"/></g>
<g><path style="opacity:1" fill="#b8b8b8" d="M 160.5,131.5 C 164.31,132.754 164.31,133.754 160.5,134.5C 160.5,133.5 160.5,132.5 160.5,131.5 Z"/></g>
<g><path style="opacity:1" fill="#a8a8a8" d="M 164.5,133.5 C 166.337,133.639 166.67,134.306 165.5,135.5C 164.702,135.043 164.369,134.376 164.5,133.5 Z"/></g>
<g><path style="opacity:1" fill="#323232" d="M 126.5,168.5 C 125.833,168.5 125.5,168.167 125.5,167.5C 123.563,166.069 121.73,164.402 120,162.5C 116.177,158.488 116.677,155.321 121.5,153C 129.56,150.267 136.893,151.6 143.5,157C 140.095,164.357 134.429,168.19 126.5,168.5 Z"/></g>
<g><path style="opacity:1" fill="#dfdfdf" d="M 122.5,154.5 C 123.833,154.5 125.167,154.5 126.5,154.5C 126.845,157.488 125.512,158.821 122.5,158.5C 121.5,158.167 120.5,157.833 119.5,157.5C 120.77,156.712 121.77,155.712 122.5,154.5 Z"/></g>
<g><path style="opacity:1" fill="#f5f2e7" d="M 127.5,182.5 C 128.552,182.351 129.552,182.517 130.5,183C 136.148,189.822 142.814,195.322 150.5,199.5C 135.949,208.595 121.283,208.761 106.5,200C 114.679,195.578 121.679,189.744 127.5,182.5 Z"/></g>
</svg>
