<svg xmlns="http://www.w3.org/2000/svg" viewBox="0 0 28 28" shape-rendering="crispEdges">
<g fill="#11265D">
<rect x="2" y="4" width="11" height="1"/>
<rect x="14" y="4" width="10" height="1"/>
<rect x="2" y="5" width="12" height="1"/>
<rect x="15" y="5" width="10" height="1"/>
<rect x="2" y="6" width="3" height="1"/>
<rect x="11" y="6" width="4" height="1"/>
<rect x="16" y="6" width="2" height="1"/>
<rect x="22" y="6" width="4" height="1"/>
<rect x="2" y="7" width="3" height="1"/>
<rect x="12" y="7" width="3" height="1"/>
<rect x="16" y="7" width="2" height="1"/>
<rect x="23" y="7" width="3" height="1"/>
<rect x="2" y="8" width="3" height="1"/>
<rect x="12" y="8" width="3" height="1"/>
<rect x="16" y="8" width="2" height="1"/>
<rect x="23" y="8" width="3" height="1"/>
<rect x="2" y="9" width="3" height="1"/>
<rect x="12" y="9" width="3" height="1"/>
<rect x="16" y="9" width="2" height="1"/>
<rect x="23" y="9" width="3" height="1"/>
<rect x="2" y="10" width="3" height="1"/>
<rect x="12" y="10" width="3" height="1"/>
<rect x="16" y="10" width="2" height="1"/>
<rect x="23" y="10" width="3" height="1"/>
<rect x="2" y="11" width="3" height="1"/>
<rect x="11" y="11" width="4" height="1"/>
<rect x="16" y="11" width="2" height="1"/>
<rect x="23" y="11" width="3" height="1"/>
<rect x="2" y="12" width="12" height="1"/>
<rect x="15" y="12" width="3" height="1"/>
<rect x="23" y="12" width="3" height="1"/>
<rect x="2" y="13" width="11" height="1"/>
<rect x="15" y="13" width="3" height="1"/>
<rect x="22" y="13" width="4" height="1"/>
<rect x="2" y="14" width="12" height="1"/>
<rect x="15" y="14" width="11" height="1"/>
<rect x="2" y="15" width="3" height="1"/>
<rect x="11" y="15" width="4" height="1"/>
<rect x="16" y="15" width="9" height="1"/>
<rect x="2" y="16" width="3" height="1"/>
<rect x="12" y="16" width="3" height="1"/>
<rect x="16" y="16" width="8" height="1"/>
<rect x="2" y="17" width="3" height="1"/>
<rect x="12" y="17" width="3" height="1"/>
<rect x="16" y="17" width="2" height="1"/>
<rect x="2" y="18" width="3" height="1"/>
<rect x="12" y="18" width="3" height="1"/>
<rect x="16" y="18" width="2" height="1"/>
<rect x="2" y="19" width="3" height="1"/>
<rect x="12" y="19" width="3" height="1"/>
<rect x="16" y="19" width="2" height="1"/>
<rect x="2" y="20" width="3" height="1"/>
<rect x="11" y="20" width="4" height="1"/>
<rect x="16" y="20" width="2" height="1"/>
<rect x="2" y="21" width="12" height="1"/>
<rect x="16" y="21" width="2" height="1"/>
<rect x="2" y="22" width="12" height="1"/>
<rect x="15" y="22" width="3" height="1"/>
<rect x="2" y="23" width="10" height="1"/>
<rect x="15" y="23" width="3" height="1"/>
</g></svg>
