<?xml version="1.0" encoding="UTF-8"?>
<!DOCTYPE svg PUBLIC "-//W3C//DTD SVG 1.1//EN" "http://www.w3.org/Graphics/SVG/1.1/DTD/svg11.dtd">
<svg xmlns="http://www.w3.org/2000/svg" version="1.1" width="600px" height="600px" style="shape-rendering:geometricPrecision; text-rendering:geometricPrecision; image-rendering:optimizeQuality; fill-rule:evenodd; clip-rule:evenodd" xmlns:xlink="http://www.w3.org/1999/xlink">
<g><path style="opacity:0.994" fill="#77787c" d="M 301.5,131.5 C 302.5,131.5 303.5,131.5 304.5,131.5C 302.317,142.247 299.817,152.913 297,163.5C 295.506,164.747 294.006,164.747 292.5,163.5C 289.667,157.167 286.833,150.833 284,144.5C 282.332,151.172 280.665,157.838 279,164.5C 277.604,166.527 275.938,166.86 274,165.5C 269.382,155.951 265.382,146.284 262,136.5C 264.139,135.231 266.305,135.231 268.5,136.5C 270.724,142.615 273.224,148.615 276,154.5C 278.133,148.303 279.8,141.969 281,135.5C 281.725,133.842 282.892,133.342 284.5,134C 288.042,140.612 291.209,147.445 294,154.5C 295.793,147.869 297.46,141.202 299,134.5C 299.698,133.309 300.531,132.309 301.5,131.5 Z"/></g>
<g><path style="opacity:0.988" fill="#76787c" d="M 317.5,133.5 C 319.017,133.511 320.184,134.177 321,135.5C 323.414,145.073 326.414,154.407 330,163.5C 332.667,155.5 335.333,147.5 338,139.5C 339.549,136.997 341.216,136.997 343,139.5C 346.394,147.288 350.061,154.955 354,162.5C 355.803,156.758 357.803,151.091 360,145.5C 362.158,144.323 363.658,144.99 364.5,147.5C 361.858,157.273 358.358,166.607 354,175.5C 353.228,175.355 352.561,175.022 352,174.5C 348.257,166.014 344.257,157.681 340,149.5C 338.05,156.021 335.717,162.354 333,168.5C 329.754,167.182 326.42,166.182 323,165.5C 321.69,161.93 320.857,158.263 320.5,154.5C 317.934,154.656 315.434,154.322 313,153.5C 310.578,157.344 307.911,161.01 305,164.5C 303.605,164.22 302.438,163.553 301.5,162.5C 306.862,152.816 312.195,143.15 317.5,133.5 Z M 316.5,144.5 C 317.339,145.641 318.006,146.974 318.5,148.5C 317.167,149.833 315.833,149.833 314.5,148.5C 315.63,147.378 316.297,146.044 316.5,144.5 Z"/></g>
<g><path style="opacity:0.992" fill="#76787c" d="M 255.5,138.5 C 256.978,138.238 258.311,138.571 259.5,139.5C 256.961,144.745 254.294,149.912 251.5,155C 257.204,158.846 262.87,162.68 268.5,166.5C 266.887,168.088 264.887,169.088 262.5,169.5C 258.199,167.031 254.033,164.364 250,161.5C 250.368,165.467 250.868,169.467 251.5,173.5C 249.5,173.833 247.5,174.167 245.5,174.5C 243.143,165.261 240.477,156.094 237.5,147C 238.383,144.094 240.383,142.927 243.5,143.5C 243.899,146.696 244.899,149.696 246.5,152.5C 248.921,148.66 251.088,144.66 253,140.5C 253.995,139.934 254.828,139.267 255.5,138.5 Z"/></g>
<g><path style="opacity:0.994" fill="#75777b" d="M 219.5,152.5 C 221.144,152.286 222.644,152.62 224,153.5C 228.965,161.266 233.798,169.099 238.5,177C 238.266,178.732 237.266,179.566 235.5,179.5C 226.901,177.014 218.234,175.181 209.5,174C 213.424,178.763 216.758,183.93 219.5,189.5C 218.788,191.046 217.622,192.046 216,192.5C 209.882,184.438 204.382,175.938 199.5,167C 199.734,165.268 200.734,164.434 202.5,164.5C 210.51,166.503 218.51,168.503 226.5,170.5C 227.521,169.998 227.688,169.332 227,168.5C 224.333,164.5 221.667,160.5 219,156.5C 218.421,155.072 218.588,153.738 219.5,152.5 Z"/></g>
<g><path style="opacity:0.988" fill="#74777b" d="M 381.5,155.5 C 383.929,155.585 385.929,156.585 387.5,158.5C 382.739,165.255 378.406,172.255 374.5,179.5C 377.02,184.932 381.02,186.765 386.5,185C 391.318,179.693 395.652,174.027 399.5,168C 401.92,167.085 403.253,167.918 403.5,170.5C 400.848,175.799 397.681,180.799 394,185.5C 386.108,193.585 378.442,193.251 371,184.5C 367.788,179.867 367.788,175.2 371,170.5C 374.51,165.471 378.01,160.471 381.5,155.5 Z"/></g>
<g><path style="opacity:0.983" fill="#74777b" d="M 191.5,171.5 C 200.227,177.054 206.56,184.554 210.5,194C 208.245,201.921 203.078,206.755 195,208.5C 186.468,204.47 179.635,198.47 174.5,190.5C 174.98,187.508 176.647,186.341 179.5,187C 184.751,192.923 190.584,198.09 197,202.5C 202.691,200.834 205.024,197.168 204,191.5C 199.7,186.199 195.034,181.199 190,176.5C 189.387,174.505 189.887,172.838 191.5,171.5 Z"/></g>
<g><path style="opacity:0.994" fill="#797a7d" d="M 410.5,176.5 C 412.384,176.712 413.717,177.712 414.5,179.5C 413.572,188.155 413.072,196.822 413,205.5C 416.867,201.298 421.033,197.465 425.5,194C 427.661,193.278 429.328,193.945 430.5,196C 423.329,203.504 415.829,210.67 408,217.5C 406.347,215.768 405.514,213.601 405.5,211C 406.192,203.099 406.692,195.266 407,187.5C 402.405,191.55 397.905,195.717 393.5,200C 391.155,200.544 389.821,199.544 389.5,197C 396.33,190.004 403.33,183.171 410.5,176.5 Z"/></g>
<g><path style="opacity:1" fill="#0c2c60" d="M 347.5,197.5 C 347.369,198.376 347.702,199.043 348.5,199.5C 351.875,200.903 355.209,202.403 358.5,204C 363.098,208.102 368.098,211.602 373.5,214.5C 378.102,216.603 381.102,220.103 382.5,225C 382.613,226.699 381.947,227.866 380.5,228.5C 373.105,226.777 365.605,225.777 358,225.5C 354.833,225.667 351.667,225.833 348.5,226C 345.848,226.353 343.848,227.52 342.5,229.5C 328.053,238.653 322.886,251.653 327,268.5C 329.722,276.282 333.722,283.282 339,289.5C 348.333,297.5 357,306.167 365,315.5C 367.988,319.808 370.155,324.475 371.5,329.5C 374.082,342.807 374.082,356.14 371.5,369.5C 369.718,376.4 366.385,382.4 361.5,387.5C 355.672,393.56 349.339,398.893 342.5,403.5C 338.356,406.568 333.689,408.568 328.5,409.5C 316.912,411.358 305.246,411.858 293.5,411C 285.685,409.629 278.018,407.796 270.5,405.5C 266.418,404.624 262.751,402.957 259.5,400.5C 257.803,398.661 256.137,396.828 254.5,395C 256.263,391.644 257.596,388.144 258.5,384.5C 259.697,380.969 261.697,377.969 264.5,375.5C 269.187,379.855 273.854,384.188 278.5,388.5C 284.891,393.521 292.224,396.688 300.5,398C 323.838,401.581 341.005,393.081 352,372.5C 352.953,369.568 353.453,366.568 353.5,363.5C 355.322,354.378 354.489,345.378 351,336.5C 350.623,335.058 349.79,334.058 348.5,333.5C 345.264,328.723 341.764,324.056 338,319.5C 332.146,313.694 326.312,308.027 320.5,302.5C 319.66,300.147 318.326,298.147 316.5,296.5C 315.516,294.52 314.183,292.853 312.5,291.5C 310.208,287.253 308.208,282.919 306.5,278.5C 306.279,275.933 305.612,273.599 304.5,271.5C 303.793,268.214 303.46,264.881 303.5,261.5C 303.815,252.231 306.149,243.564 310.5,235.5C 316.049,228.287 323.049,222.954 331.5,219.5C 335.048,218.87 338.381,217.87 341.5,216.5C 345.081,215.74 348.748,215.24 352.5,215C 348.691,211.762 344.358,209.596 339.5,208.5C 322.85,200.468 305.516,198.468 287.5,202.5C 286.391,202.557 285.391,202.89 284.5,203.5C 279.53,203.824 274.863,205.157 270.5,207.5C 258.215,211.98 247.548,218.98 238.5,228.5C 237.542,229.962 236.376,231.295 235,232.5C 234.333,233.833 234.333,235.167 235,236.5C 240.08,242.734 244.914,249.067 249.5,255.5C 249.5,255.833 249.5,256.167 249.5,256.5C 241.221,255.479 232.721,253.813 224,251.5C 221.437,251.618 219.937,252.951 219.5,255.5C 217.399,258.797 216.065,262.463 215.5,266.5C 213.882,269.888 212.882,273.554 212.5,277.5C 211.207,287.295 211.207,296.962 212.5,306.5C 212.305,310.915 212.805,315.249 214,319.5C 215.369,323.802 217.203,327.802 219.5,331.5C 219.66,333.153 220.326,334.486 221.5,335.5C 222.801,340.101 225.134,344.101 228.5,347.5C 234.161,339.839 240.827,333.173 248.5,327.5C 256.624,321.442 265.29,316.442 274.5,312.5C 279.05,311.537 283.383,310.203 287.5,308.5C 291.519,308.354 295.519,308.021 299.5,307.5C 300.791,307.263 301.791,307.596 302.5,308.5C 280.504,316.839 262.504,330.506 248.5,349.5C 244.213,352.797 241.546,357.131 240.5,362.5C 236.423,367.642 233.09,373.309 230.5,379.5C 229.833,379.833 229.167,380.167 228.5,380.5C 226.489,379.481 224.489,378.481 222.5,377.5C 215.31,371.314 209.643,363.981 205.5,355.5C 186.32,318.47 185.653,281.136 203.5,243.5C 204.383,240.296 206.05,237.629 208.5,235.5C 215.103,227.56 222.103,219.893 229.5,212.5C 233.745,207.764 238.745,203.931 244.5,201C 249.299,198.265 254.299,196.098 259.5,194.5C 272.903,190.766 286.57,188.433 300.5,187.5C 316.697,188.467 332.364,191.8 347.5,197.5 Z M 305.5,348.5 C 308.524,348.175 310.191,349.508 310.5,352.5C 309.875,355.986 308.042,356.986 305,355.5C 304.297,353.071 304.463,350.738 305.5,348.5 Z M 323.5,348.5 C 324.5,348.5 325.5,348.5 326.5,348.5C 326.5,350.167 326.5,351.833 326.5,353.5C 322.716,353.475 321.716,351.808 323.5,348.5 Z M 322.5,357.5 C 324.144,357.286 325.644,357.62 327,358.5C 327.758,360.769 327.591,362.936 326.5,365C 324.633,365.711 323.133,365.211 322,363.5C 321.51,361.455 321.677,359.455 322.5,357.5 Z"/></g>
<g><path style="opacity:0.659" fill="#3e556a" d="M 347.5,197.5 C 332.364,191.8 316.697,188.467 300.5,187.5C 286.57,188.433 272.903,190.766 259.5,194.5C 272.438,188.78 286.105,186.113 300.5,186.5C 317.269,185.983 332.936,189.65 347.5,197.5 Z"/></g>
<g><path style="opacity:0.991" fill="#77797c" d="M 170.5,193.5 C 171.376,193.369 172.043,193.702 172.5,194.5C 175,200.167 177.5,205.833 180,211.5C 183.158,214.08 186.492,216.413 190,218.5C 189.945,222.076 188.112,223.576 184.5,223C 181.466,220.484 178.132,218.484 174.5,217C 168.584,216.81 162.751,216.31 157,215.5C 156.376,213.536 156.876,211.869 158.5,210.5C 163.456,210.072 168.456,209.905 173.5,210C 171.559,206.118 169.892,202.118 168.5,198C 168.519,196.167 169.185,194.667 170.5,193.5 Z"/></g>
<g><path style="opacity:1" fill="#638951" d="M 339.5,208.5 C 331.058,205.556 322.391,203.556 313.5,202.5C 304.994,201.445 296.327,201.445 287.5,202.5C 305.516,198.468 322.85,200.468 339.5,208.5 Z"/></g>
<g><path style="opacity:0.506" fill="#374f69" d="M 347.5,197.5 C 357.543,201.18 366.209,206.847 373.5,214.5C 368.098,211.602 363.098,208.102 358.5,204C 355.209,202.403 351.875,200.903 348.5,199.5C 347.702,199.043 347.369,198.376 347.5,197.5 Z"/></g>
<g><path style="opacity:1" fill="#bcdf4c" d="M 313.5,202.5 C 322.391,203.556 331.058,205.556 339.5,208.5C 344.358,209.596 348.691,211.762 352.5,215C 348.748,215.24 345.081,215.74 341.5,216.5C 337.714,216.32 334.381,217.32 331.5,219.5C 323.049,222.954 316.049,228.287 310.5,235.5C 311.526,227.875 312.193,220.208 312.5,212.5C 312.187,208.958 312.521,205.625 313.5,202.5 Z"/></g>
<g><path style="opacity:0.773" fill="#797a7e" d="M 433.5,204.5 C 436.321,204.316 437.988,205.649 438.5,208.5C 430.778,215.047 422.612,221.047 414,226.5C 411.27,224.865 410.103,222.698 410.5,220C 418.344,214.97 426.011,209.804 433.5,204.5 Z"/></g>
<g><path style="opacity:1" fill="#67ab23" d="M 270.5,207.5 C 268.326,209.081 265.993,210.581 263.5,212C 264.88,213.324 265.214,214.657 264.5,216C 265.308,216.308 265.975,216.808 266.5,217.5C 264.204,220.205 261.537,223.372 258.5,227C 259.276,228.77 259.11,230.603 258,232.5C 256.636,231.742 255.469,232.242 254.5,234C 254.833,235 255.167,236 255.5,237C 255,237.5 254.5,238 254,238.5C 249.867,235.369 246.034,231.869 242.5,228C 241.181,227.805 239.847,227.972 238.5,228.5C 247.548,218.98 258.215,211.98 270.5,207.5 Z"/></g>
<g><path style="opacity:1" fill="#476b54" d="M 341.5,216.5 C 338.381,217.87 335.048,218.87 331.5,219.5C 334.381,217.32 337.714,216.32 341.5,216.5 Z"/></g>
<g><path style="opacity:1" fill="#79bb1c" d="M 284.5,203.5 C 283.969,205.624 282.635,207.124 280.5,208C 280.833,208.333 281.167,208.667 281.5,209C 278.884,210.709 277.884,212.876 278.5,215.5C 276.914,218.341 275.08,221.007 273,223.5C 272.374,225.713 272.541,227.88 273.5,230C 273.05,231.285 272.383,232.452 271.5,233.5C 273.465,235.519 273.631,237.519 272,239.5C 271.581,238.328 270.915,237.328 270,236.5C 268.325,238.591 267.825,240.758 268.5,243C 267.874,243.75 267.374,244.584 267,245.5C 265.006,242.916 264.506,243.082 265.5,246C 265.387,247.28 264.72,248.113 263.5,248.5C 260.978,246.144 258.312,243.977 255.5,242C 253.687,241.386 253.353,241.719 254.5,243C 250.5,243.667 250.5,244.333 254.5,245C 252.041,245.724 251.041,247.057 251.5,249C 248.331,250.342 247.665,252.508 249.5,255.5C 244.914,249.067 240.08,242.734 235,236.5C 234.333,235.167 234.333,233.833 235,232.5C 236.376,231.295 237.542,229.962 238.5,228.5C 239.847,227.972 241.181,227.805 242.5,228C 246.034,231.869 249.867,235.369 254,238.5C 254.5,238 255,237.5 255.5,237C 255.167,236 254.833,235 254.5,234C 255.469,232.242 256.636,231.742 258,232.5C 259.11,230.603 259.276,228.77 258.5,227C 261.537,223.372 264.204,220.205 266.5,217.5C 265.975,216.808 265.308,216.308 264.5,216C 265.214,214.657 264.88,213.324 263.5,212C 265.993,210.581 268.326,209.081 270.5,207.5C 274.863,205.157 279.53,203.824 284.5,203.5 Z"/></g>
<g><path style="opacity:0.99" fill="#76787c" d="M 154.5,216.5 C 155.496,216.414 156.329,216.748 157,217.5C 158.667,222.167 160.333,226.833 162,231.5C 162.519,232.516 163.353,233.182 164.5,233.5C 170.506,231.832 176.506,230.165 182.5,228.5C 182.878,231.289 181.878,233.789 179.5,236C 174.732,237.025 170.066,238.358 165.5,240C 168.994,241.579 172.327,243.413 175.5,245.5C 174.815,247.547 173.649,249.214 172,250.5C 163.312,246.071 154.479,242.071 145.5,238.5C 144.927,235.383 146.094,233.383 149,232.5C 151.845,233.45 154.512,234.783 157,236.5C 156.04,231.444 154.54,226.444 152.5,221.5C 153.456,219.925 154.123,218.258 154.5,216.5 Z"/></g>
<g><path style="opacity:0.243" fill="#5a6875" d="M 380.5,228.5 C 379.828,229.267 378.995,229.934 378,230.5C 366.253,225.767 354.419,225.433 342.5,229.5C 343.848,227.52 345.848,226.353 348.5,226C 351.667,225.833 354.833,225.667 358,225.5C 365.605,225.777 373.105,226.777 380.5,228.5 Z"/></g>
<g><path style="opacity:0.792" fill="#395368" d="M 229.5,212.5 C 222.103,219.893 215.103,227.56 208.5,235.5C 213.74,226.258 220.74,218.591 229.5,212.5 Z"/></g>
<g><path style="opacity:1" fill="#a3d429" d="M 312.5,212.5 C 312.193,220.208 311.526,227.875 310.5,235.5C 306.149,243.564 303.815,252.231 303.5,261.5C 301.767,260.992 301.434,260.159 302.5,259C 301.692,258.692 301.025,258.192 300.5,257.5C 299.82,255.111 298.986,252.778 298,250.5C 295.266,251.362 295.099,252.195 297.5,253C 296.271,254.529 294.771,255.696 293,256.5C 292.544,257.744 293.044,258.577 294.5,259C 293.167,260 291.833,261 290.5,262C 291.174,263.751 291.507,265.417 291.5,267C 290.5,267.333 289.5,267.667 288.5,268C 288.5,269 288.5,270 288.5,271C 287.584,271.374 286.75,271.874 286,272.5C 284.027,271.36 282.193,270.027 280.5,268.5C 275.745,272.056 273.245,276.389 273,281.5C 273.333,281.167 273.667,280.833 274,280.5C 275.36,282.105 276.86,283.605 278.5,285C 277.246,286.687 275.58,288.687 273.5,291C 270.574,291.218 267.74,291.718 265,292.5C 263.36,294.579 262.194,296.912 261.5,299.5C 263.045,300.452 264.712,300.785 266.5,300.5C 266.64,302.124 265.973,303.29 264.5,304C 265.634,305.016 265.301,305.683 263.5,306C 263.833,306.333 264.167,306.667 264.5,307C 261.077,310.454 257.244,313.287 253,315.5C 250.883,318.615 249.216,321.948 248,325.5C 247.667,324.5 247.333,323.5 247,322.5C 246.691,323.766 246.191,324.933 245.5,326C 246.737,326.232 247.737,326.732 248.5,327.5C 240.827,333.173 234.161,339.839 228.5,347.5C 225.134,344.101 222.801,340.101 221.5,335.5C 220.768,332.863 220.768,330.363 221.5,328C 223.5,327.333 224.833,326 225.5,324C 231.5,321.667 237.5,319.333 243.5,317C 245.129,314.325 247.463,311.658 250.5,309C 250.167,308.667 249.833,308.333 249.5,308C 250.5,307.667 251.5,307.333 252.5,307C 251.786,305.657 252.12,304.324 253.5,303C 251.167,302.667 248.833,302.333 246.5,302C 245.448,300.284 246.114,299.284 248.5,299C 246.122,298.026 246.456,297.359 249.5,297C 248.833,296.667 248.167,296.333 247.5,296C 248.833,295 250.167,294 251.5,293C 250.833,292.667 250.167,292.333 249.5,292C 251.762,291.358 253.929,290.525 256,289.5C 259.733,291.084 262.899,290.25 265.5,287C 265.167,286.667 264.833,286.333 264.5,286C 265.204,284.429 266.537,282.762 268.5,281C 264.274,279.02 259.941,277.187 255.5,275.5C 254.497,272.965 255.163,270.798 257.5,269C 256.209,266.91 256.876,265.576 259.5,265C 258.833,264.667 258.167,264.333 257.5,264C 259.953,262.12 261.953,259.787 263.5,257C 261.068,255.913 261.402,255.413 264.5,255.5C 264.281,254.325 264.614,253.325 265.5,252.5C 269.625,256.123 273.625,259.957 277.5,264C 278.996,264.507 280.163,264.007 281,262.5C 282.483,259.677 283.983,256.843 285.5,254C 283.55,250.102 281.883,246.102 280.5,242C 280.755,240.674 281.422,239.674 282.5,239C 280.122,238.026 280.456,237.359 283.5,237C 280.833,236.333 280.833,235.667 283.5,235C 283.167,234.667 282.833,234.333 282.5,234C 283.893,232.829 284.727,231.329 285,229.5C 285.333,230.5 285.667,231.5 286,232.5C 285.71,228.798 287.21,226.298 290.5,225C 288.099,224.195 288.266,223.362 291,222.5C 291.617,221.551 291.451,220.718 290.5,220C 291.448,219.517 292.448,219.351 293.5,219.5C 294.557,225.51 295.724,231.51 297,237.5C 298.5,236 300,234.5 301.5,233C 301.167,232.667 300.833,232.333 300.5,232C 305.627,226.073 309.627,219.573 312.5,212.5 Z"/></g>
<g><path style="opacity:0.782" fill="#797b7e" d="M 439.5,210.5 C 442.243,211.985 443.409,214.318 443,217.5C 438.505,222.994 433.672,228.161 428.5,233C 435.354,233.105 442.188,232.605 449,231.5C 452.562,231.901 454.062,233.901 453.5,237.5C 443.975,237.752 434.475,238.419 425,239.5C 420.567,240.401 418.9,238.735 420,234.5C 426.713,226.626 433.213,218.626 439.5,210.5 Z"/></g>
<g><path style="opacity:0.997" fill="#7a7b7e" d="M 451.5,241.5 C 453.144,241.286 454.644,241.62 456,242.5C 457.501,247.172 459.001,251.839 460.5,256.5C 459.652,258.283 458.319,258.783 456.5,258C 455.391,254.717 454.057,251.55 452.5,248.5C 450.205,249.432 447.871,250.265 445.5,251C 447.476,254.21 448.142,257.543 447.5,261C 446.207,261.49 444.873,261.657 443.5,261.5C 442.833,258.5 442.167,255.5 441.5,252.5C 438.304,252.899 435.304,253.899 432.5,255.5C 434.117,259.014 435.117,262.681 435.5,266.5C 433.712,266.785 432.045,266.452 430.5,265.5C 429.128,260.549 427.461,255.716 425.5,251C 434.259,247.915 442.926,244.749 451.5,241.5 Z"/></g>
<g><path style="opacity:1" fill="#8dc718" d="M 313.5,202.5 C 312.521,205.625 312.187,208.958 312.5,212.5C 309.627,219.573 305.627,226.073 300.5,232C 300.833,232.333 301.167,232.667 301.5,233C 300,234.5 298.5,236 297,237.5C 295.724,231.51 294.557,225.51 293.5,219.5C 292.448,219.351 291.448,219.517 290.5,220C 291.451,220.718 291.617,221.551 291,222.5C 288.266,223.362 288.099,224.195 290.5,225C 287.21,226.298 285.71,228.798 286,232.5C 285.667,231.5 285.333,230.5 285,229.5C 284.727,231.329 283.893,232.829 282.5,234C 282.833,234.333 283.167,234.667 283.5,235C 280.833,235.667 280.833,236.333 283.5,237C 280.456,237.359 280.122,238.026 282.5,239C 281.422,239.674 280.755,240.674 280.5,242C 281.883,246.102 283.55,250.102 285.5,254C 283.983,256.843 282.483,259.677 281,262.5C 280.163,264.007 278.996,264.507 277.5,264C 273.625,259.957 269.625,256.123 265.5,252.5C 264.614,253.325 264.281,254.325 264.5,255.5C 261.402,255.413 261.068,255.913 263.5,257C 261.953,259.787 259.953,262.12 257.5,264C 258.167,264.333 258.833,264.667 259.5,265C 256.876,265.576 256.209,266.91 257.5,269C 255.163,270.798 254.497,272.965 255.5,275.5C 259.941,277.187 264.274,279.02 268.5,281C 266.537,282.762 265.204,284.429 264.5,286C 264.833,286.333 265.167,286.667 265.5,287C 262.899,290.25 259.733,291.084 256,289.5C 253.929,290.525 251.762,291.358 249.5,292C 250.167,292.333 250.833,292.667 251.5,293C 250.167,294 248.833,295 247.5,296C 248.167,296.333 248.833,296.667 249.5,297C 246.456,297.359 246.122,298.026 248.5,299C 246.114,299.284 245.448,300.284 246.5,302C 248.833,302.333 251.167,302.667 253.5,303C 252.12,304.324 251.786,305.657 252.5,307C 251.5,307.333 250.5,307.667 249.5,308C 249.833,308.333 250.167,308.667 250.5,309C 247.463,311.658 245.129,314.325 243.5,317C 237.5,319.333 231.5,321.667 225.5,324C 224.833,326 223.5,327.333 221.5,328C 220.768,330.363 220.768,332.863 221.5,335.5C 220.326,334.486 219.66,333.153 219.5,331.5C 218.85,329.565 218.517,327.565 218.5,325.5C 220.661,325.174 222.494,324.174 224,322.5C 224.318,320.939 225.151,319.772 226.5,319C 225.66,317.334 226.16,317.167 228,318.5C 227.021,316.721 227.354,315.055 229,313.5C 229.333,314.167 229.667,314.833 230,315.5C 230.333,314.167 230.667,312.833 231,311.5C 231.654,312.696 232.154,312.696 232.5,311.5C 231.975,310.808 231.308,310.308 230.5,310C 232.305,309.028 233.972,307.861 235.5,306.5C 230.647,305.524 225.48,305.191 220,305.5C 220.709,300.923 222.875,297.09 226.5,294C 226.043,293.586 225.709,293.086 225.5,292.5C 226.687,291.481 227.687,290.314 228.5,289C 234.416,288.81 240.249,288.31 246,287.5C 246.333,287.833 246.667,288.167 247,288.5C 247.483,287.552 247.649,286.552 247.5,285.5C 250.598,285.587 250.932,285.087 248.5,284C 250.959,283.276 251.959,281.943 251.5,280C 252.362,277.266 253.195,277.099 254,279.5C 254.667,278.5 254.667,277.5 254,276.5C 249.033,273.905 244.2,271.072 239.5,268C 240.893,266.829 241.727,265.329 242,263.5C 242.333,264.167 242.667,264.833 243,265.5C 243.208,263.223 244.042,261.057 245.5,259C 247.715,258.83 249.715,258.163 251.5,257C 250.906,256.536 250.239,256.369 249.5,256.5C 249.5,256.167 249.5,255.833 249.5,255.5C 247.665,252.508 248.331,250.342 251.5,249C 251.041,247.057 252.041,245.724 254.5,245C 250.5,244.333 250.5,243.667 254.5,243C 253.353,241.719 253.687,241.386 255.5,242C 258.312,243.977 260.978,246.144 263.5,248.5C 264.72,248.113 265.387,247.28 265.5,246C 264.506,243.082 265.006,242.916 267,245.5C 267.374,244.584 267.874,243.75 268.5,243C 267.825,240.758 268.325,238.591 270,236.5C 270.915,237.328 271.581,238.328 272,239.5C 273.631,237.519 273.465,235.519 271.5,233.5C 272.383,232.452 273.05,231.285 273.5,230C 272.541,227.88 272.374,225.713 273,223.5C 275.08,221.007 276.914,218.341 278.5,215.5C 277.884,212.876 278.884,210.709 281.5,209C 281.167,208.667 280.833,208.333 280.5,208C 282.635,207.124 283.969,205.624 284.5,203.5C 285.391,202.89 286.391,202.557 287.5,202.5C 296.327,201.445 304.994,201.445 313.5,202.5 Z"/></g>
<g><path style="opacity:0.993" fill="#75787b" d="M 141.5,252.5 C 147.384,253.612 147.884,255.945 143,259.5C 138.409,270.299 142.076,276.299 154,277.5C 161.924,275.971 165.09,271.305 163.5,263.5C 160.553,262.577 157.553,261.911 154.5,261.5C 153.927,258.383 155.094,256.383 158,255.5C 161.501,256.234 165.001,256.9 168.5,257.5C 169.902,266.301 167.902,274.135 162.5,281C 155.959,285.23 149.292,285.23 142.5,281C 134.203,272.041 133.87,262.541 141.5,252.5 Z"/></g>
<g><path style="opacity:1" fill="#68ad21" d="M 219.5,255.5 C 219.302,257.575 219.135,259.575 219,261.5C 223.759,263.795 228.592,265.962 233.5,268C 232.167,269 232.167,270 233.5,271C 230.403,276.756 226.57,281.923 222,286.5C 221.085,285.672 220.419,284.672 220,283.5C 218.419,286.553 216.086,287.22 213,285.5C 212.5,292.492 212.334,299.492 212.5,306.5C 211.207,296.962 211.207,287.295 212.5,277.5C 213.117,277.389 213.617,277.056 214,276.5C 214.826,273.207 215.326,269.874 215.5,266.5C 216.065,262.463 217.399,258.797 219.5,255.5 Z"/></g>
<g><path style="opacity:1" fill="#c6e45a" d="M 304.5,271.5 C 305.612,273.599 306.279,275.933 306.5,278.5C 305.014,279.556 303.514,279.223 302,277.5C 301.213,279.848 301.379,282.015 302.5,284C 301.333,285.167 300.167,286.333 299,287.5C 298.667,287.167 298.333,286.833 298,286.5C 297.316,287.784 297.483,288.951 298.5,290C 294.887,291.94 292.721,295.44 292,300.5C 291.147,302.125 290.147,302.458 289,301.5C 288.383,302.449 288.549,303.282 289.5,304C 288.833,304.667 288.167,305.333 287.5,306C 288.598,306.77 288.598,307.603 287.5,308.5C 283.383,310.203 279.05,311.537 274.5,312.5C 273.803,310.929 273.47,309.429 273.5,308C 278.309,304.902 282.643,301.902 286.5,299C 285.167,298.333 283.833,297.667 282.5,297C 281.167,296.333 281.167,295.667 282.5,295C 281.833,294.667 281.167,294.333 280.5,294C 282.101,293.727 283.601,293.227 285,292.5C 286.749,293.299 288.082,292.632 289,290.5C 289.984,292.795 290.817,292.461 291.5,289.5C 290.019,288.52 288.685,287.353 287.5,286C 289.525,284.806 289.859,283.306 288.5,281.5C 289,280.5 289.5,279.5 290,278.5C 291.827,279.659 293.493,280.992 295,282.5C 298.045,278.81 298.211,274.977 295.5,271C 295.759,269.739 296.426,268.739 297.5,268C 297.167,267.667 296.833,267.333 296.5,267C 298.286,266.215 299.786,265.049 301,263.5C 301.438,267.19 302.605,269.856 304.5,271.5 Z"/></g>
<g><path style="opacity:0.994" fill="#7a7b7d" d="M 438.5,291.5 C 437.833,291.5 437.5,291.833 437.5,292.5C 436.5,292.5 435.5,292.5 434.5,292.5C 434.338,290.473 434.505,288.473 435,286.5C 438.131,282.367 441.631,278.534 445.5,275C 441.842,275.083 438.175,275.583 434.5,276.5C 432.988,275.009 431.988,273.176 431.5,271C 440.373,268.931 449.373,267.431 458.5,266.5C 460.1,266.551 461.6,266.884 463,267.5C 463.418,271.178 463.918,274.845 464.5,278.5C 463.707,284.467 460.374,287.301 454.5,287C 451.667,285.5 449.5,283.333 448,280.5C 444.25,283.744 441.083,287.411 438.5,291.5 Z M 458.5,272.5 C 459.629,274.628 459.796,276.961 459,279.5C 457,282.167 455,282.167 453,279.5C 451.872,277.655 451.372,275.655 451.5,273.5C 454.059,273.802 456.393,273.468 458.5,272.5 Z"/></g>
<g><path style="opacity:1" fill="#4c7d3f" d="M 215.5,266.5 C 215.326,269.874 214.826,273.207 214,276.5C 213.617,277.056 213.117,277.389 212.5,277.5C 212.882,273.554 213.882,269.888 215.5,266.5 Z"/></g>
<g><path style="opacity:1" fill="#b5dc41" d="M 303.5,261.5 C 303.46,264.881 303.793,268.214 304.5,271.5C 302.605,269.856 301.438,267.19 301,263.5C 299.786,265.049 298.286,266.215 296.5,267C 296.833,267.333 297.167,267.667 297.5,268C 296.426,268.739 295.759,269.739 295.5,271C 298.211,274.977 298.045,278.81 295,282.5C 293.493,280.992 291.827,279.659 290,278.5C 289.5,279.5 289,280.5 288.5,281.5C 289.859,283.306 289.525,284.806 287.5,286C 288.685,287.353 290.019,288.52 291.5,289.5C 290.817,292.461 289.984,292.795 289,290.5C 288.082,292.632 286.749,293.299 285,292.5C 283.601,293.227 282.101,293.727 280.5,294C 281.167,294.333 281.833,294.667 282.5,295C 281.167,295.667 281.167,296.333 282.5,297C 283.833,297.667 285.167,298.333 286.5,299C 282.643,301.902 278.309,304.902 273.5,308C 273.47,309.429 273.803,310.929 274.5,312.5C 265.29,316.442 256.624,321.442 248.5,327.5C 247.737,326.732 246.737,326.232 245.5,326C 246.191,324.933 246.691,323.766 247,322.5C 247.333,323.5 247.667,324.5 248,325.5C 249.216,321.948 250.883,318.615 253,315.5C 257.244,313.287 261.077,310.454 264.5,307C 264.167,306.667 263.833,306.333 263.5,306C 265.301,305.683 265.634,305.016 264.5,304C 265.973,303.29 266.64,302.124 266.5,300.5C 264.712,300.785 263.045,300.452 261.5,299.5C 262.194,296.912 263.36,294.579 265,292.5C 267.74,291.718 270.574,291.218 273.5,291C 275.58,288.687 277.246,286.687 278.5,285C 276.86,283.605 275.36,282.105 274,280.5C 273.667,280.833 273.333,281.167 273,281.5C 273.245,276.389 275.745,272.056 280.5,268.5C 282.193,270.027 284.027,271.36 286,272.5C 286.75,271.874 287.584,271.374 288.5,271C 288.5,270 288.5,269 288.5,268C 289.5,267.667 290.5,267.333 291.5,267C 291.507,265.417 291.174,263.751 290.5,262C 291.833,261 293.167,260 294.5,259C 293.044,258.577 292.544,257.744 293,256.5C 294.771,255.696 296.271,254.529 297.5,253C 295.099,252.195 295.266,251.362 298,250.5C 298.986,252.778 299.82,255.111 300.5,257.5C 301.025,258.192 301.692,258.692 302.5,259C 301.434,260.159 301.767,260.992 303.5,261.5 Z"/></g>
<g><path style="opacity:1" fill="#d6eb74" d="M 306.5,278.5 C 308.208,282.919 310.208,287.253 312.5,291.5C 311.482,294.73 309.815,297.563 307.5,300C 309.878,300.974 309.544,301.641 306.5,302C 307.634,303.016 307.301,303.683 305.5,304C 306.598,304.77 306.598,305.603 305.5,306.5C 303.265,306.205 301.265,306.539 299.5,307.5C 295.519,308.021 291.519,308.354 287.5,308.5C 288.598,307.603 288.598,306.77 287.5,306C 288.167,305.333 288.833,304.667 289.5,304C 288.549,303.282 288.383,302.449 289,301.5C 290.147,302.458 291.147,302.125 292,300.5C 292.721,295.44 294.887,291.94 298.5,290C 297.483,288.951 297.316,287.784 298,286.5C 298.333,286.833 298.667,287.167 299,287.5C 300.167,286.333 301.333,285.167 302.5,284C 301.379,282.015 301.213,279.848 302,277.5C 303.514,279.223 305.014,279.556 306.5,278.5 Z"/></g>
<g><path style="opacity:0.995" fill="#78797c" d="M 135.5,288.5 C 144.839,288.334 154.173,288.5 163.5,289C 164.28,290.073 164.113,291.24 163,292.5C 156.198,298.301 149.698,304.468 143.5,311C 150.114,310.457 156.781,310.457 163.5,311C 164.38,312.356 164.714,313.856 164.5,315.5C 154.469,315.502 144.469,315.669 134.5,316C 133.483,314.951 133.316,313.784 134,312.5C 140.194,306.306 146.36,300.14 152.5,294C 146.167,293.667 139.833,293.333 133.5,293C 132.663,291.989 132.33,290.822 132.5,289.5C 133.791,289.737 134.791,289.404 135.5,288.5 Z"/></g>
<g><path style="opacity:1" fill="#e7f2b2" d="M 312.5,291.5 C 314.183,292.853 315.516,294.52 316.5,296.5C 315.542,297.962 314.376,299.295 313,300.5C 311.664,302.525 311.164,304.525 311.5,306.5C 309.5,306.5 307.5,306.5 305.5,306.5C 306.598,305.603 306.598,304.77 305.5,304C 307.301,303.683 307.634,303.016 306.5,302C 309.544,301.641 309.878,300.974 307.5,300C 309.815,297.563 311.482,294.73 312.5,291.5 Z"/></g>
<g><path style="opacity:0.999" fill="#7b7b7e" d="M 438.5,291.5 C 440.842,291.504 442.842,292.337 444.5,294C 439.622,296.918 437.955,301.085 439.5,306.5C 441.511,308.451 443.511,308.618 445.5,307C 447.336,303.482 449.17,299.982 451,296.5C 457.009,292.419 462.009,293.419 466,299.5C 466.837,303.295 466.504,306.961 465,310.5C 462.683,313.182 460.516,313.015 458.5,310C 462.388,306.369 462.388,302.869 458.5,299.5C 457.186,300.313 456.019,301.313 455,302.5C 453.46,306.419 451.293,309.919 448.5,313C 439.372,315.733 434.372,312.233 433.5,302.5C 433.866,298.728 435.199,295.394 437.5,292.5C 438.167,292.5 438.5,292.167 438.5,291.5 Z"/></g>
<g><path style="opacity:0.996" fill="#e2e9cc" d="M 316.5,296.5 C 318.326,298.147 319.66,300.147 320.5,302.5C 320.033,305.297 318.367,306.631 315.5,306.5C 314.167,306.5 312.833,306.5 311.5,306.5C 311.164,304.525 311.664,302.525 313,300.5C 314.376,299.295 315.542,297.962 316.5,296.5 Z"/></g>
<g><path style="opacity:1" fill="#7bbc1c" d="M 249.5,256.5 C 250.239,256.369 250.906,256.536 251.5,257C 249.715,258.163 247.715,258.83 245.5,259C 244.042,261.057 243.208,263.223 243,265.5C 242.667,264.833 242.333,264.167 242,263.5C 241.727,265.329 240.893,266.829 239.5,268C 244.2,271.072 249.033,273.905 254,276.5C 254.667,277.5 254.667,278.5 254,279.5C 253.195,277.099 252.362,277.266 251.5,280C 251.959,281.943 250.959,283.276 248.5,284C 250.932,285.087 250.598,285.587 247.5,285.5C 247.649,286.552 247.483,287.552 247,288.5C 246.667,288.167 246.333,287.833 246,287.5C 240.249,288.31 234.416,288.81 228.5,289C 227.687,290.314 226.687,291.481 225.5,292.5C 225.709,293.086 226.043,293.586 226.5,294C 222.875,297.09 220.709,300.923 220,305.5C 225.48,305.191 230.647,305.524 235.5,306.5C 233.972,307.861 232.305,309.028 230.5,310C 231.308,310.308 231.975,310.808 232.5,311.5C 232.154,312.696 231.654,312.696 231,311.5C 230.667,312.833 230.333,314.167 230,315.5C 229.667,314.833 229.333,314.167 229,313.5C 227.354,315.055 227.021,316.721 228,318.5C 226.16,317.167 225.66,317.334 226.5,319C 225.151,319.772 224.318,320.939 224,322.5C 222.494,324.174 220.661,325.174 218.5,325.5C 218.517,327.565 218.85,329.565 219.5,331.5C 217.203,327.802 215.369,323.802 214,319.5C 212.805,315.249 212.305,310.915 212.5,306.5C 212.334,299.492 212.5,292.492 213,285.5C 216.086,287.22 218.419,286.553 220,283.5C 220.419,284.672 221.085,285.672 222,286.5C 226.57,281.923 230.403,276.756 233.5,271C 232.167,270 232.167,269 233.5,268C 228.592,265.962 223.759,263.795 219,261.5C 219.135,259.575 219.302,257.575 219.5,255.5C 219.937,252.951 221.437,251.618 224,251.5C 232.721,253.813 241.221,255.479 249.5,256.5 Z"/></g>
<g><path style="opacity:0.405" fill="#7d8083" d="M 299.5,307.5 C 301.265,306.539 303.265,306.205 305.5,306.5C 307.5,306.5 309.5,306.5 311.5,306.5C 312.833,306.5 314.167,306.5 315.5,306.5C 311.27,307.22 306.937,307.887 302.5,308.5C 301.791,307.596 300.791,307.263 299.5,307.5 Z"/></g>
<g><path style="opacity:0.989" fill="#797a7d" d="M 434.5,317.5 C 443.479,318.996 452.479,320.496 461.5,322C 463.25,323.754 463.917,325.921 463.5,328.5C 453.844,327.002 444.177,325.502 434.5,324C 433.572,323.612 432.905,322.945 432.5,322C 433.044,320.415 433.711,318.915 434.5,317.5 Z"/></g>
<g><path style="opacity:0.989" fill="#74777b" d="M 150.5,320.5 C 165.364,319.218 171.197,325.884 168,340.5C 166.749,343.381 164.583,345.214 161.5,346C 155.352,347.579 149.185,349.079 143,350.5C 140.094,349.617 138.927,347.617 139.5,344.5C 145.856,343.161 152.189,341.661 158.5,340C 163.999,338.172 165.499,334.672 163,329.5C 162.5,327.667 161.333,326.5 159.5,326C 152.005,325.87 144.672,327.037 137.5,329.5C 134.99,328.658 134.323,327.158 135.5,325C 140.664,323.631 145.664,322.131 150.5,320.5 Z"/></g>
<g><path style="opacity:0.659" fill="#395268" d="M 203.5,243.5 C 185.653,281.136 186.32,318.47 205.5,355.5C 197.104,342.825 191.938,328.825 190,313.5C 186.12,288.405 190.62,265.071 203.5,243.5 Z"/></g>
<g><path style="opacity:0.659" fill="#2d4866" d="M 371.5,329.5 C 374.376,335.901 375.709,342.735 375.5,350C 375.745,356.947 374.411,363.447 371.5,369.5C 374.082,356.14 374.082,342.807 371.5,329.5 Z"/></g>
<g><path style="opacity:0.977" fill="#75777b" d="M 274.5,345.5 C 275.833,345.5 277.167,345.5 278.5,345.5C 278.187,352.755 278.52,359.921 279.5,367C 278.073,369.369 276.239,369.869 274,368.5C 273.501,362.843 273.334,357.176 273.5,351.5C 271.654,351.778 270.32,351.111 269.5,349.5C 271.015,347.918 272.681,346.584 274.5,345.5 Z"/></g>
<g><path style="opacity:0.984" fill="#71757a" d="M 285.5,345.5 C 294.206,343.869 297.206,347.202 294.5,355.5C 298.683,366.162 295.016,370.329 283.5,368C 282.151,366.365 282.318,364.865 284,363.5C 286.667,366.167 289.333,366.167 292,363.5C 292.956,359.075 291.123,357.408 286.5,358.5C 286.5,357.167 286.5,355.833 286.5,354.5C 289.261,355.085 290.927,354.085 291.5,351.5C 291.566,349.734 290.732,348.734 289,348.5C 284.046,351.376 282.879,350.376 285.5,345.5 Z"/></g>
<g><path style="opacity:0.989" fill="#6e7379" d="M 305.5,344.5 C 312.29,344.959 315.623,348.625 315.5,355.5C 315.22,364.786 310.553,369.119 301.5,368.5C 299.639,363.364 300.972,362.364 305.5,365.5C 308.401,364.767 310.067,362.933 310.5,360C 302.911,361.413 299.411,358.246 300,350.5C 301.021,347.65 302.854,345.65 305.5,344.5 Z M 305.5,348.5 C 304.463,350.738 304.297,353.071 305,355.5C 308.042,356.986 309.875,355.986 310.5,352.5C 310.191,349.508 308.524,348.175 305.5,348.5 Z"/></g>
<g><path style="opacity:0.986" fill="#6c7278" d="M 323.5,344.5 C 330.597,344.588 332.93,347.921 330.5,354.5C 335.023,364.974 331.689,369.474 320.5,368C 315.521,364.255 315.188,360.088 319.5,355.5C 316.582,350.33 317.915,346.664 323.5,344.5 Z M 323.5,348.5 C 321.716,351.808 322.716,353.475 326.5,353.5C 326.5,351.833 326.5,350.167 326.5,348.5C 325.5,348.5 324.5,348.5 323.5,348.5 Z M 322.5,357.5 C 321.677,359.455 321.51,361.455 322,363.5C 323.133,365.211 324.633,365.711 326.5,365C 327.591,362.936 327.758,360.769 327,358.5C 325.644,357.62 324.144,357.286 322.5,357.5 Z"/></g>
<g><path style="opacity:0.144" fill="#636f79" d="M 348.5,333.5 C 349.79,334.058 350.623,335.058 351,336.5C 354.489,345.378 355.322,354.378 353.5,363.5C 354.556,353.009 352.89,343.009 348.5,333.5 Z"/></g>
<g><path style="opacity:0.992" fill="#75777b" d="M 165.5,347.5 C 173.994,348.496 178.661,353.329 179.5,362C 179.674,367.66 177.007,369.826 171.5,368.5C 173.251,365.071 173.751,361.405 173,357.5C 170.333,352.167 167.667,352.167 165,357.5C 164.667,361.5 164.333,365.5 164,369.5C 161.459,374.069 157.625,375.569 152.5,374C 146.78,370.294 144.78,365.127 146.5,358.5C 152.35,357.644 153.684,359.478 150.5,364C 152.027,368.511 154.527,369.344 158,366.5C 158.333,362.167 158.667,357.833 159,353.5C 160.436,350.558 162.603,348.558 165.5,347.5 Z"/></g>
<g><path style="opacity:0.815" fill="#7a7b7e" d="M 459.5,331.5 C 461.484,331.484 462.484,332.484 462.5,334.5C 460.463,342.982 457.963,351.316 455,359.5C 450.282,360.859 445.449,361.859 440.5,362.5C 443.376,366.206 446.043,370.039 448.5,374C 448.112,375.951 447.112,377.451 445.5,378.5C 441.39,373.126 437.39,367.626 433.5,362C 429.266,360.723 425.599,358.723 422.5,356C 422.888,354.049 423.888,352.549 425.5,351.5C 429.407,353.038 433.24,354.704 437,356.5C 441.742,355.393 446.576,354.559 451.5,354C 453.608,351.57 454.275,348.904 453.5,346C 445.51,343.725 437.51,341.558 429.5,339.5C 429.34,337.801 429.506,336.134 430,334.5C 430.725,333.941 431.558,333.608 432.5,333.5C 440.428,335.983 448.428,337.817 456.5,339C 457.601,336.528 458.601,334.028 459.5,331.5 Z"/></g>
<g><path style="opacity:0.11" fill="#566573" d="M 248.5,349.5 C 246.081,354.009 243.414,358.342 240.5,362.5C 241.546,357.131 244.213,352.797 248.5,349.5 Z"/></g>
<g><path style="opacity:0.506" fill="#45596f" d="M 240.5,362.5 C 237.831,369.337 234.497,375.837 230.5,382C 226.855,382.342 224.189,380.842 222.5,377.5C 224.489,378.481 226.489,379.481 228.5,380.5C 229.167,380.167 229.833,379.833 230.5,379.5C 233.09,373.309 236.423,367.642 240.5,362.5 Z"/></g>
<g><path style="opacity:0.992" fill="#74777b" d="M 406.5,382.5 C 411.76,386.255 416.594,390.589 421,395.5C 421.417,398.284 420.25,400.284 417.5,401.5C 413.849,398.349 410.349,395.016 407,391.5C 401.264,397.927 395.097,403.427 388.5,408C 385.644,406.571 385.144,404.737 387,402.5C 393.757,395.911 400.257,389.245 406.5,382.5 Z"/></g>
<g><path style="opacity:0.882" fill="#384f6b" d="M 258.5,384.5 C 257.596,388.144 256.263,391.644 254.5,395C 256.137,396.828 257.803,398.661 259.5,400.5C 256.405,399.621 254.072,397.788 252.5,395C 253.888,391.046 255.888,387.546 258.5,384.5 Z"/></g>
<g><path style="opacity:0.333" fill="#495d6f" d="M 353.5,363.5 C 353.453,366.568 352.953,369.568 352,372.5C 341.005,393.081 323.838,401.581 300.5,398C 292.224,396.688 284.891,393.521 278.5,388.5C 293.26,397.182 308.927,399.349 325.5,395C 340.358,389.314 349.691,378.814 353.5,363.5 Z"/></g>
<g><path style="opacity:0.882" fill="#42576d" d="M 361.5,387.5 C 356.955,394.942 350.621,400.275 342.5,403.5C 349.339,398.893 355.672,393.56 361.5,387.5 Z"/></g>
<g><path style="opacity:0.994" fill="#797a7d" d="M 425.5,397.5 C 429,397.495 430.5,399.162 430,402.5C 422.135,410.03 414.635,417.864 407.5,426C 404.875,426.723 403.208,425.723 402.5,423C 403.5,421.333 404.5,419.667 405.5,418C 404.392,415.888 402.892,414.054 401,412.5C 400.583,409.716 401.75,407.716 404.5,406.5C 406.817,408.316 408.984,410.316 411,412.5C 411.833,411.667 412.667,410.833 413.5,410C 409.983,408.516 408.149,406.016 408,402.5C 409.019,401.313 410.186,400.313 411.5,399.5C 413.535,401.372 415.702,403.039 418,404.5C 420.986,402.68 423.486,400.347 425.5,397.5 Z"/></g>
<g><path style="opacity:0.659" fill="#395268" d="M 270.5,405.5 C 278.018,407.796 285.685,409.629 293.5,411C 305.246,411.858 316.912,411.358 328.5,409.5C 308.705,415.444 289.371,414.111 270.5,405.5 Z"/></g>
<g><path style="opacity:0.992" fill="#77787c" d="M 218.5,430.5 C 218.158,429.662 217.492,429.328 216.5,429.5C 211.74,427.331 211.407,424.664 215.5,421.5C 222.792,425.062 229.958,428.729 237,432.5C 238.847,431.831 240.014,430.497 240.5,428.5C 234.366,424.596 228.032,420.929 221.5,417.5C 220.004,414.825 220.671,412.825 223.5,411.5C 231.343,415.922 239.343,420.088 247.5,424C 248.357,424.689 249.023,425.522 249.5,426.5C 246.043,431.407 243.71,436.74 242.5,442.5C 240.393,441.363 238.227,440.363 236,439.5C 234.674,440.799 233.34,442.132 232,443.5C 228.122,442.412 226.956,440.079 228.5,436.5C 228.192,435.692 227.692,435.025 227,434.5C 225.969,438.1 223.802,439.1 220.5,437.5C 219.394,435.716 219.394,433.882 220.5,432C 220.164,430.97 219.497,430.47 218.5,430.5 Z"/></g>
<g><path style="opacity:0.76" fill="#77797d" d="M 195.5,386.5 C 197.38,387.078 198.38,388.412 198.5,390.5C 197.585,394.144 197.419,397.81 198,401.5C 200.632,398.808 202.966,399.141 205,402.5C 208.189,398.486 210.689,398.986 212.5,404C 209.512,408.321 205.846,411.988 201.5,415C 199.633,415.711 198.133,415.211 197,413.5C 196.233,422.803 191.399,425.97 182.5,423C 175.065,417.302 174.732,411.302 181.5,405C 184.482,404.502 187.482,404.335 190.5,404.5C 190.724,400.821 191.058,397.154 191.5,393.5C 187.51,394.19 183.51,394.357 179.5,394C 178.577,391.959 178.244,389.792 178.5,387.5C 184.358,387.822 190.025,387.489 195.5,386.5 Z M 184.5,410.5 C 189,410.164 190.833,412.164 190,416.5C 188,419.167 186,419.167 184,416.5C 183.322,414.402 183.489,412.402 184.5,410.5 Z M 193.5,406.5 C 194.5,406.5 195.5,406.5 196.5,406.5C 196.343,405.127 196.51,403.793 197,402.5C 197.785,404.286 198.951,405.786 200.5,407C 197.408,411.417 195.075,411.25 193.5,406.5 Z"/></g>
<g><path style="opacity:0.994" fill="#76787b" d="M 336.5,453.5 C 336.274,456.249 336.607,458.916 337.5,461.5C 335.548,463.533 333.382,463.866 331,462.5C 330.83,460.285 330.163,458.285 329,456.5C 322.961,458.09 316.794,459.09 310.5,459.5C 308.87,451.526 307.703,443.526 307,435.5C 312.324,433.695 317.824,432.695 323.5,432.5C 323.854,434.541 323.854,436.374 323.5,438C 320.173,438.61 316.839,439.11 313.5,439.5C 314.059,443.853 314.725,448.186 315.5,452.5C 319.794,452.423 323.961,451.756 328,450.5C 327.825,444.615 326.992,438.782 325.5,433C 325.645,432.228 325.978,431.561 326.5,431C 331.362,429.524 333.529,431.357 333,436.5C 333.497,434.19 333.663,431.857 333.5,429.5C 335.262,429.643 336.929,429.309 338.5,428.5C 341.427,439.314 343.427,450.314 344.5,461.5C 342.774,461.815 341.107,461.981 339.5,462C 338.132,459.196 337.132,456.362 336.5,453.5 Z M 336.5,453.5 C 335.307,451.03 334.807,448.364 335,445.5C 336.252,448.014 336.752,450.68 336.5,453.5 Z"/></g>
<g><path style="opacity:0.993" fill="#76787c" d="M 374.5,410.5 C 376.923,410.424 378.756,411.424 380,413.5C 383.42,411.698 385.587,412.698 386.5,416.5C 385.395,417.892 384.061,419.059 382.5,420C 385.817,425.99 389.15,431.99 392.5,438C 391.295,439.538 389.795,440.705 388,441.5C 386.498,439.825 384.998,438.159 383.5,436.5C 377.63,440.2 371.63,443.7 365.5,447C 362.186,448.165 360.186,446.998 359.5,443.5C 361.028,442.139 362.695,440.972 364.5,440C 358.983,439.839 355.149,437.339 353,432.5C 345.998,429.012 346.331,425.678 354,422.5C 354.791,417.865 357.291,416.532 361.5,418.5C 363.607,417.363 365.773,416.363 368,415.5C 369.847,416.169 371.014,417.503 371.5,419.5C 369.15,420.774 369.317,422.107 372,423.5C 374.075,427.448 373.908,431.281 371.5,435C 374.275,434.626 376.942,433.626 379.5,432C 380.517,430.951 380.684,429.784 380,428.5C 377.167,423.5 374.333,418.5 371.5,413.5C 372.34,412.265 373.34,411.265 374.5,410.5 Z M 362.5,425.5 C 367.821,427.805 367.821,430.139 362.5,432.5C 360.5,432.5 359.5,431.5 359.5,429.5C 359.787,427.557 360.787,426.223 362.5,425.5 Z"/></g>
<g><path style="opacity:0.994" fill="#73767a" d="M 263.5,449.5 C 261.735,448.539 259.735,448.205 257.5,448.5C 257.5,446.5 257.5,444.5 257.5,442.5C 260.167,442.5 262.833,442.5 265.5,442.5C 265.5,441.167 265.5,439.833 265.5,438.5C 267.655,438.372 269.655,438.872 271.5,440C 271.966,441.299 271.966,442.799 271.5,444.5C 275.143,443.881 276.143,441.881 274.5,438.5C 270.222,437.453 265.888,436.62 261.5,436C 260.167,434.333 260.167,432.667 261.5,431C 268.211,430.91 274.878,431.577 281.5,433C 282.578,436.099 282.578,439.266 281.5,442.5C 281.696,444.286 282.529,445.619 284,446.5C 284.728,442.464 285.561,438.464 286.5,434.5C 291.542,432.943 293.209,434.61 291.5,439.5C 294.488,439.155 295.821,440.488 295.5,443.5C 295.167,444.5 294.833,445.5 294.5,446.5C 293.264,445.754 291.93,445.421 290.5,445.5C 290.219,449.188 289.719,452.855 289,456.5C 287.301,457.406 285.467,457.739 283.5,457.5C 283.739,455.533 283.406,453.699 282.5,452C 276.215,450.73 269.882,449.897 263.5,449.5 Z"/></g>
<g><path style="opacity:0.829" fill="#7a7b7e" d="M 216.5,429.5 C 216.842,430.338 217.508,430.672 218.5,430.5C 218.613,433.049 217.946,435.382 216.5,437.5C 223.663,441.247 230.663,445.247 237.5,449.5C 236.826,451.517 235.659,453.183 234,454.5C 225.493,449.579 216.826,444.912 208,440.5C 208.712,437.053 210.045,433.719 212,430.5C 213.356,429.62 214.856,429.286 216.5,429.5 Z"/></g>
<g><path style="opacity:0.724" fill="#7a7b7f" d="M 263.5,449.5 C 264.278,450.156 264.944,450.989 265.5,452C 264.767,453.766 264.433,455.599 264.5,457.5C 272.194,458.432 279.86,459.599 287.5,461C 289.024,464.116 288.024,465.95 284.5,466.5C 275.506,465.056 266.506,463.723 257.5,462.5C 257.485,458.44 257.985,454.44 259,450.5C 260.356,449.62 261.856,449.286 263.5,449.5 Z"/></g>
</svg>
